<mxfile host="app.diagrams.net" agent="Mozilla/5.0 (X11; Linux x86_64; rv:138.0) Gecko/20100101 Firefox/138.0" version="27.0.5">
  <diagram name="Page-1" id="ii8GhFJVOVafjOlFWu37">
    <mxGraphModel dx="1360" dy="827" grid="1" gridSize="10" guides="1" tooltips="1" connect="1" arrows="1" fold="1" page="1" pageScale="1" pageWidth="850" pageHeight="1100" math="0" shadow="0">
      <root>
        <mxCell id="0" />
        <mxCell id="1" style="locked=1;" parent="0" />
        <mxCell id="2-QNsD8USTveLjZ0OLwa-36" value="" style="whiteSpace=wrap;html=1;strokeColor=none;" vertex="1" parent="1">
          <mxGeometry width="680" height="640" as="geometry" />
        </mxCell>
        <mxCell id="2-QNsD8USTveLjZ0OLwa-18" value="diagrams" parent="0" />
        <mxCell id="2-QNsD8USTveLjZ0OLwa-20" value="&lt;div align=&quot;left&quot;&gt;&lt;br&gt;&lt;/div&gt;" style="rounded=0;whiteSpace=wrap;html=1;container=0;" vertex="1" parent="2-QNsD8USTveLjZ0OLwa-18">
          <mxGeometry x="40" y="32.54" width="220" height="200" as="geometry" />
        </mxCell>
        <mxCell id="2-QNsD8USTveLjZ0OLwa-21" value="erreur_t" style="text;html=1;align=left;verticalAlign=middle;whiteSpace=wrap;rounded=0;fontSize=18;container=0;" vertex="1" parent="2-QNsD8USTveLjZ0OLwa-18">
          <mxGeometry x="50" y="42.21032967032969" width="160" height="29.01098901098901" as="geometry" />
        </mxCell>
        <mxCell id="2-QNsD8USTveLjZ0OLwa-37" value="&lt;div align=&quot;left&quot;&gt;&lt;font style=&quot;font-size: 18px;&quot;&gt;&amp;nbsp;erreur_code_t code&lt;/font&gt;&lt;/div&gt;" style="rounded=0;whiteSpace=wrap;html=1;align=left;" vertex="1" parent="2-QNsD8USTveLjZ0OLwa-18">
          <mxGeometry x="80" y="82.53999999999999" width="170" height="40" as="geometry" />
        </mxCell>
        <mxCell id="2-QNsD8USTveLjZ0OLwa-42" style="edgeStyle=orthogonalEdgeStyle;rounded=0;orthogonalLoop=1;jettySize=auto;html=1;exitX=1;exitY=0.5;exitDx=0;exitDy=0;entryX=0;entryY=0.5;entryDx=0;entryDy=0;" edge="1" parent="2-QNsD8USTveLjZ0OLwa-18" source="2-QNsD8USTveLjZ0OLwa-38" target="2-QNsD8USTveLjZ0OLwa-43">
          <mxGeometry relative="1" as="geometry">
            <mxPoint x="280" y="152.54" as="targetPoint" />
          </mxGeometry>
        </mxCell>
        <mxCell id="2-QNsD8USTveLjZ0OLwa-38" value="&amp;nbsp;char *com" style="rounded=0;whiteSpace=wrap;html=1;align=left;fontSize=18;fillColor=#b1ddf0;strokeColor=#10739e;" vertex="1" parent="2-QNsD8USTveLjZ0OLwa-18">
          <mxGeometry x="80" y="132.54" width="100" height="40" as="geometry" />
        </mxCell>
        <mxCell id="2-QNsD8USTveLjZ0OLwa-39" value="&amp;nbsp;bool must_free" style="rounded=0;whiteSpace=wrap;html=1;align=left;fontSize=18;" vertex="1" parent="2-QNsD8USTveLjZ0OLwa-18">
          <mxGeometry x="80" y="181.19" width="140" height="40" as="geometry" />
        </mxCell>
        <mxCell id="2-QNsD8USTveLjZ0OLwa-46" style="edgeStyle=orthogonalEdgeStyle;rounded=0;orthogonalLoop=1;jettySize=auto;html=1;exitX=1;exitY=0.5;exitDx=0;exitDy=0;entryX=0;entryY=0.5;entryDx=0;entryDy=0;" edge="1" parent="2-QNsD8USTveLjZ0OLwa-18" source="2-QNsD8USTveLjZ0OLwa-43" target="2-QNsD8USTveLjZ0OLwa-45">
          <mxGeometry relative="1" as="geometry" />
        </mxCell>
        <mxCell id="2-QNsD8USTveLjZ0OLwa-43" value="&amp;nbsp;char" style="rounded=0;whiteSpace=wrap;html=1;align=left;fontSize=18;" vertex="1" parent="2-QNsD8USTveLjZ0OLwa-18">
          <mxGeometry x="300" y="132.54" width="50" height="40" as="geometry" />
        </mxCell>
        <mxCell id="2-QNsD8USTveLjZ0OLwa-44" value="&amp;nbsp;char" style="rounded=0;whiteSpace=wrap;html=1;align=left;fontSize=18;" vertex="1" parent="2-QNsD8USTveLjZ0OLwa-18">
          <mxGeometry x="450" y="132.54" width="50" height="40" as="geometry" />
        </mxCell>
        <mxCell id="2-QNsD8USTveLjZ0OLwa-47" value="" style="edgeStyle=orthogonalEdgeStyle;rounded=0;orthogonalLoop=1;jettySize=auto;html=1;" edge="1" parent="2-QNsD8USTveLjZ0OLwa-18" source="2-QNsD8USTveLjZ0OLwa-45" target="2-QNsD8USTveLjZ0OLwa-44">
          <mxGeometry relative="1" as="geometry" />
        </mxCell>
        <mxCell id="2-QNsD8USTveLjZ0OLwa-45" value="&lt;div&gt;...&lt;/div&gt;" style="text;html=1;align=center;verticalAlign=middle;whiteSpace=wrap;rounded=0;fontSize=18;" vertex="1" parent="2-QNsD8USTveLjZ0OLwa-18">
          <mxGeometry x="380" y="137.54" width="40" height="30" as="geometry" />
        </mxCell>
        <mxCell id="2-QNsD8USTveLjZ0OLwa-48" value="" style="shape=curlyBracket;whiteSpace=wrap;html=1;rounded=1;labelPosition=left;verticalLabelPosition=middle;align=right;verticalAlign=middle;rotation=90;" vertex="1" parent="2-QNsD8USTveLjZ0OLwa-18">
          <mxGeometry x="387.46" width="24.75" height="199.67" as="geometry" />
        </mxCell>
        <mxCell id="2-QNsD8USTveLjZ0OLwa-49" value="Ã€ allouer" style="text;html=1;align=center;verticalAlign=middle;whiteSpace=wrap;rounded=0;fontSize=18;" vertex="1" parent="2-QNsD8USTveLjZ0OLwa-18">
          <mxGeometry x="360" y="52.54" width="90" height="30" as="geometry" />
        </mxCell>
        <mxCell id="2-QNsD8USTveLjZ0OLwa-50" value="&lt;div align=&quot;left&quot;&gt;&lt;br&gt;&lt;/div&gt;" style="rounded=0;whiteSpace=wrap;html=1;container=0;" vertex="1" parent="2-QNsD8USTveLjZ0OLwa-18">
          <mxGeometry x="40" y="270" width="220" height="350" as="geometry" />
        </mxCell>
        <mxCell id="2-QNsD8USTveLjZ0OLwa-51" value="all_option_t" style="text;html=1;align=left;verticalAlign=middle;whiteSpace=wrap;rounded=0;fontSize=18;container=0;" vertex="1" parent="2-QNsD8USTveLjZ0OLwa-18">
          <mxGeometry x="50" y="279.6703296703297" width="160" height="29.01098901098901" as="geometry" />
        </mxCell>
        <mxCell id="2-QNsD8USTveLjZ0OLwa-65" style="edgeStyle=orthogonalEdgeStyle;rounded=0;orthogonalLoop=1;jettySize=auto;html=1;exitX=1;exitY=0.5;exitDx=0;exitDy=0;entryX=0;entryY=0.5;entryDx=0;entryDy=0;" edge="1" parent="2-QNsD8USTveLjZ0OLwa-18" source="2-QNsD8USTveLjZ0OLwa-52" target="2-QNsD8USTveLjZ0OLwa-59">
          <mxGeometry relative="1" as="geometry" />
        </mxCell>
        <mxCell id="2-QNsD8USTveLjZ0OLwa-52" value="&lt;div align=&quot;left&quot;&gt;&lt;font style=&quot;font-size: 18px;&quot;&gt;&amp;nbsp;char *execname&lt;/font&gt;&lt;/div&gt;" style="rounded=0;whiteSpace=wrap;html=1;align=left;fillColor=#b1ddf0;strokeColor=#10739e;" vertex="1" parent="2-QNsD8USTveLjZ0OLwa-18">
          <mxGeometry x="80" y="320" width="150" height="40" as="geometry" />
        </mxCell>
        <mxCell id="2-QNsD8USTveLjZ0OLwa-53" value="&amp;nbsp;int verbose" style="rounded=0;whiteSpace=wrap;html=1;align=left;fontSize=18;" vertex="1" parent="2-QNsD8USTveLjZ0OLwa-18">
          <mxGeometry x="80" y="370" width="120" height="40" as="geometry" />
        </mxCell>
        <mxCell id="2-QNsD8USTveLjZ0OLwa-54" value="&amp;nbsp;int print_time" style="rounded=0;whiteSpace=wrap;html=1;align=left;fontSize=18;" vertex="1" parent="2-QNsD8USTveLjZ0OLwa-18">
          <mxGeometry x="80" y="418.65" width="120" height="40" as="geometry" />
        </mxCell>
        <mxCell id="2-QNsD8USTveLjZ0OLwa-55" value="&amp;nbsp;int idct_fast" style="rounded=0;whiteSpace=wrap;html=1;align=left;fontSize=18;" vertex="1" parent="2-QNsD8USTveLjZ0OLwa-18">
          <mxGeometry x="80" y="470" width="120" height="40" as="geometry" />
        </mxCell>
        <mxCell id="2-QNsD8USTveLjZ0OLwa-77" style="edgeStyle=orthogonalEdgeStyle;rounded=0;orthogonalLoop=1;jettySize=auto;html=1;exitX=1;exitY=0.5;exitDx=0;exitDy=0;entryX=0;entryY=0.5;entryDx=0;entryDy=0;" edge="1" parent="2-QNsD8USTveLjZ0OLwa-18" source="2-QNsD8USTveLjZ0OLwa-56" target="2-QNsD8USTveLjZ0OLwa-67">
          <mxGeometry relative="1" as="geometry" />
        </mxCell>
        <mxCell id="2-QNsD8USTveLjZ0OLwa-56" value="&amp;nbsp;char *filepath" style="rounded=0;whiteSpace=wrap;html=1;align=left;fontSize=18;fillColor=#b1ddf0;strokeColor=#10739e;" vertex="1" parent="2-QNsD8USTveLjZ0OLwa-18">
          <mxGeometry x="80" y="520" width="120" height="40" as="geometry" />
        </mxCell>
        <mxCell id="2-QNsD8USTveLjZ0OLwa-76" style="edgeStyle=orthogonalEdgeStyle;rounded=0;orthogonalLoop=1;jettySize=auto;html=1;exitX=1;exitY=0.5;exitDx=0;exitDy=0;entryX=0;entryY=0.5;entryDx=0;entryDy=0;" edge="1" parent="2-QNsD8USTveLjZ0OLwa-18" source="2-QNsD8USTveLjZ0OLwa-57" target="2-QNsD8USTveLjZ0OLwa-72">
          <mxGeometry relative="1" as="geometry" />
        </mxCell>
        <mxCell id="2-QNsD8USTveLjZ0OLwa-57" value="&amp;nbsp;char *outfile" style="rounded=0;whiteSpace=wrap;html=1;align=left;fontSize=18;fillColor=#b1ddf0;strokeColor=#10739e;" vertex="1" parent="2-QNsD8USTveLjZ0OLwa-18">
          <mxGeometry x="80" y="570" width="120" height="40" as="geometry" />
        </mxCell>
        <mxCell id="2-QNsD8USTveLjZ0OLwa-58" style="edgeStyle=orthogonalEdgeStyle;rounded=0;orthogonalLoop=1;jettySize=auto;html=1;exitX=1;exitY=0.5;exitDx=0;exitDy=0;entryX=0;entryY=0.5;entryDx=0;entryDy=0;" edge="1" parent="2-QNsD8USTveLjZ0OLwa-18" source="2-QNsD8USTveLjZ0OLwa-59" target="2-QNsD8USTveLjZ0OLwa-62">
          <mxGeometry relative="1" as="geometry" />
        </mxCell>
        <mxCell id="2-QNsD8USTveLjZ0OLwa-59" value="&amp;nbsp;char" style="rounded=0;whiteSpace=wrap;html=1;align=left;fontSize=18;" vertex="1" parent="2-QNsD8USTveLjZ0OLwa-18">
          <mxGeometry x="305" y="319.53999999999996" width="50" height="40" as="geometry" />
        </mxCell>
        <mxCell id="2-QNsD8USTveLjZ0OLwa-60" value="&amp;nbsp;char" style="rounded=0;whiteSpace=wrap;html=1;align=left;fontSize=18;" vertex="1" parent="2-QNsD8USTveLjZ0OLwa-18">
          <mxGeometry x="455" y="319.53999999999996" width="50" height="40" as="geometry" />
        </mxCell>
        <mxCell id="2-QNsD8USTveLjZ0OLwa-61" value="" style="edgeStyle=orthogonalEdgeStyle;rounded=0;orthogonalLoop=1;jettySize=auto;html=1;" edge="1" parent="2-QNsD8USTveLjZ0OLwa-18" source="2-QNsD8USTveLjZ0OLwa-62" target="2-QNsD8USTveLjZ0OLwa-60">
          <mxGeometry relative="1" as="geometry" />
        </mxCell>
        <mxCell id="2-QNsD8USTveLjZ0OLwa-62" value="&lt;div&gt;...&lt;/div&gt;" style="text;html=1;align=center;verticalAlign=middle;whiteSpace=wrap;rounded=0;fontSize=18;" vertex="1" parent="2-QNsD8USTveLjZ0OLwa-18">
          <mxGeometry x="385" y="324.53999999999996" width="40" height="30" as="geometry" />
        </mxCell>
        <mxCell id="2-QNsD8USTveLjZ0OLwa-63" value="" style="shape=curlyBracket;whiteSpace=wrap;html=1;rounded=1;labelPosition=left;verticalLabelPosition=middle;align=right;verticalAlign=middle;rotation=90;" vertex="1" parent="2-QNsD8USTveLjZ0OLwa-18">
          <mxGeometry x="392.72" y="166.92" width="24.75" height="239.83" as="geometry" />
        </mxCell>
        <mxCell id="2-QNsD8USTveLjZ0OLwa-64" value="Ã€ allouer" style="text;html=1;align=center;verticalAlign=middle;whiteSpace=wrap;rounded=0;fontSize=18;" vertex="1" parent="2-QNsD8USTveLjZ0OLwa-18">
          <mxGeometry x="365" y="239.54" width="90" height="30" as="geometry" />
        </mxCell>
        <mxCell id="2-QNsD8USTveLjZ0OLwa-66" style="edgeStyle=orthogonalEdgeStyle;rounded=0;orthogonalLoop=1;jettySize=auto;html=1;exitX=1;exitY=0.5;exitDx=0;exitDy=0;entryX=0;entryY=0.5;entryDx=0;entryDy=0;" edge="1" parent="2-QNsD8USTveLjZ0OLwa-18" source="2-QNsD8USTveLjZ0OLwa-67" target="2-QNsD8USTveLjZ0OLwa-70">
          <mxGeometry relative="1" as="geometry" />
        </mxCell>
        <mxCell id="2-QNsD8USTveLjZ0OLwa-67" value="&amp;nbsp;char" style="rounded=0;whiteSpace=wrap;html=1;align=left;fontSize=18;" vertex="1" parent="2-QNsD8USTveLjZ0OLwa-18">
          <mxGeometry x="305" y="520" width="50" height="40" as="geometry" />
        </mxCell>
        <mxCell id="2-QNsD8USTveLjZ0OLwa-68" value="&amp;nbsp;char" style="rounded=0;whiteSpace=wrap;html=1;align=left;fontSize=18;" vertex="1" parent="2-QNsD8USTveLjZ0OLwa-18">
          <mxGeometry x="455" y="520" width="50" height="40" as="geometry" />
        </mxCell>
        <mxCell id="2-QNsD8USTveLjZ0OLwa-69" value="" style="edgeStyle=orthogonalEdgeStyle;rounded=0;orthogonalLoop=1;jettySize=auto;html=1;" edge="1" parent="2-QNsD8USTveLjZ0OLwa-18" source="2-QNsD8USTveLjZ0OLwa-70" target="2-QNsD8USTveLjZ0OLwa-68">
          <mxGeometry relative="1" as="geometry" />
        </mxCell>
        <mxCell id="2-QNsD8USTveLjZ0OLwa-70" value="&lt;div&gt;...&lt;/div&gt;" style="text;html=1;align=center;verticalAlign=middle;whiteSpace=wrap;rounded=0;fontSize=18;" vertex="1" parent="2-QNsD8USTveLjZ0OLwa-18">
          <mxGeometry x="385" y="525" width="40" height="30" as="geometry" />
        </mxCell>
        <mxCell id="2-QNsD8USTveLjZ0OLwa-71" style="edgeStyle=orthogonalEdgeStyle;rounded=0;orthogonalLoop=1;jettySize=auto;html=1;exitX=1;exitY=0.5;exitDx=0;exitDy=0;entryX=0;entryY=0.5;entryDx=0;entryDy=0;" edge="1" parent="2-QNsD8USTveLjZ0OLwa-18" source="2-QNsD8USTveLjZ0OLwa-72" target="2-QNsD8USTveLjZ0OLwa-75">
          <mxGeometry relative="1" as="geometry" />
        </mxCell>
        <mxCell id="2-QNsD8USTveLjZ0OLwa-72" value="&amp;nbsp;char" style="rounded=0;whiteSpace=wrap;html=1;align=left;fontSize=18;" vertex="1" parent="2-QNsD8USTveLjZ0OLwa-18">
          <mxGeometry x="305" y="570" width="50" height="40" as="geometry" />
        </mxCell>
        <mxCell id="2-QNsD8USTveLjZ0OLwa-73" value="&amp;nbsp;char" style="rounded=0;whiteSpace=wrap;html=1;align=left;fontSize=18;" vertex="1" parent="2-QNsD8USTveLjZ0OLwa-18">
          <mxGeometry x="455" y="570" width="50" height="40" as="geometry" />
        </mxCell>
        <mxCell id="2-QNsD8USTveLjZ0OLwa-74" value="" style="edgeStyle=orthogonalEdgeStyle;rounded=0;orthogonalLoop=1;jettySize=auto;html=1;" edge="1" parent="2-QNsD8USTveLjZ0OLwa-18" source="2-QNsD8USTveLjZ0OLwa-75" target="2-QNsD8USTveLjZ0OLwa-73">
          <mxGeometry relative="1" as="geometry" />
        </mxCell>
        <mxCell id="2-QNsD8USTveLjZ0OLwa-75" value="&lt;div&gt;...&lt;/div&gt;" style="text;html=1;align=center;verticalAlign=middle;whiteSpace=wrap;rounded=0;fontSize=18;" vertex="1" parent="2-QNsD8USTveLjZ0OLwa-18">
          <mxGeometry x="385" y="575" width="40" height="30" as="geometry" />
        </mxCell>
      </root>
    </mxGraphModel>
  </diagram>
</mxfile>
